<svg width="49" height="49" viewBox="0 0 49 49" fill="none" xmlns="http://www.w3.org/2000/svg">
<circle cx="24.5" cy="24.5" r="24" fill="white" stroke="#374957"/>
<path d="M30.9998 18C30.781 17.7813 30.4843 17.6584 30.175 17.6584C29.8656 17.6584 29.5689 17.7813 29.3501 18L23.9998 23.3503L18.6495 18C18.4307 17.7813 18.134 17.6584 17.8246 17.6584C17.5153 17.6584 17.2186 17.7813 16.9998 18C16.7811 18.2188 16.6582 18.5154 16.6582 18.8248C16.6582 19.1342 16.7811 19.4309 16.9998 19.6496L22.3501 25L16.9998 30.3503C16.7811 30.5691 16.6582 30.8658 16.6582 31.1751C16.6582 31.4845 16.7811 31.7812 16.9998 32C17.2186 32.2187 17.5153 32.3416 17.8246 32.3416C18.134 32.3416 18.4307 32.2187 18.6495 32L23.9998 26.6496L29.3501 32C29.5689 32.2187 29.8656 32.3416 30.175 32.3416C30.4843 32.3416 30.781 32.2187 30.9998 32C31.2185 31.7812 31.3414 31.4845 31.3414 31.1751C31.3414 30.8658 31.2185 30.5691 30.9998 30.3503L25.6495 25L30.9998 19.6496C31.2185 19.4309 31.3414 19.1342 31.3414 18.8248C31.3414 18.5154 31.2185 18.2188 30.9998 18Z" fill="#374957"/>
</svg>
