<svg width="48" height="48" viewBox="0 0 48 48" fill="none" xmlns="http://www.w3.org/2000/svg">
<g id="fi-rr-computer" clip-path="url(#clip0_246_2121)">
<path id="Vector" d="M38 1.99951H10C7.34881 2.00269 4.80712 3.05728 2.93244 4.93195C1.05776 6.80663 0.00317572 9.34832 0 11.9995L0 27.9995C0.00317572 30.6507 1.05776 33.1924 2.93244 35.0671C4.80712 36.9417 7.34881 37.9963 10 37.9995H22V41.9995H14C13.4696 41.9995 12.9609 42.2102 12.5858 42.5853C12.2107 42.9604 12 43.4691 12 43.9995C12 44.5299 12.2107 45.0387 12.5858 45.4137C12.9609 45.7888 13.4696 45.9995 14 45.9995H34C34.5304 45.9995 35.0391 45.7888 35.4142 45.4137C35.7893 45.0387 36 44.5299 36 43.9995C36 43.4691 35.7893 42.9604 35.4142 42.5853C35.0391 42.2102 34.5304 41.9995 34 41.9995H26V37.9995H38C40.6512 37.9963 43.1929 36.9417 45.0676 35.0671C46.9422 33.1924 47.9968 30.6507 48 27.9995V11.9995C47.9968 9.34832 46.9422 6.80663 45.0676 4.93195C43.1929 3.05728 40.6512 2.00269 38 1.99951ZM10 5.99951H38C39.5913 5.99951 41.1174 6.63165 42.2426 7.75687C43.3679 8.88209 44 10.4082 44 11.9995V25.9995H4V11.9995C4 10.4082 4.63214 8.88209 5.75736 7.75687C6.88258 6.63165 8.4087 5.99951 10 5.99951ZM38 33.9995H10C8.76348 33.9944 7.55874 33.6073 6.5506 32.8913C5.54246 32.1753 4.78017 31.1653 4.368 29.9995H43.632C43.2198 31.1653 42.4575 32.1753 41.4494 32.8913C40.4413 33.6073 39.2365 33.9944 38 33.9995Z" fill="#798E9E"/>
</g>
<defs>
<clipPath id="clip0_246_2121">
<rect width="48" height="48" fill="white"/>
</clipPath>
</defs>
</svg>
