<svg width="22" height="22" viewBox="0 0 22 22" fill="none" xmlns="http://www.w3.org/2000/svg">
<path d="M7.56246 13.2689L11.7663 17.4727C12.0242 17.7305 12.374 17.8753 12.7387 17.8752C13.1034 17.8752 13.4532 17.7302 13.711 17.4723C13.9688 17.2143 14.1136 16.8645 14.1135 16.4998C14.1134 16.1351 13.9685 15.7854 13.7105 15.5275L9.50671 11.3246C9.46403 11.2821 9.43016 11.2315 9.40705 11.1758C9.38395 11.1201 9.37206 11.0604 9.37206 11.0001C9.37206 10.9398 9.38395 10.8801 9.40705 10.8245C9.43016 10.7688 9.46403 10.7182 9.50671 10.6756L13.7105 6.47271C13.9685 6.21489 14.1134 5.86515 14.1135 5.50045C14.1136 5.13575 13.9688 4.78595 13.711 4.528C13.4532 4.27006 13.1034 4.1251 12.7387 4.12501C12.374 4.12492 12.0242 4.26972 11.7663 4.52754L7.56246 8.73138C6.96183 9.33366 6.62454 10.1495 6.62454 11.0001C6.62454 11.8507 6.96183 12.6666 7.56246 13.2689Z" fill="white"/>
</svg>
