<svg width="96" height="63" viewBox="0 0 96 63" fill="none" xmlns="http://www.w3.org/2000/svg">
<path d="M39.2764 26.775C36.5655 26.7217 33.8794 26.532 31.2816 25.7052C29.4243 25.1144 27.7212 24.263 26.4461 22.7368C25.2631 21.3216 24.6605 19.6861 24.5404 17.8653C24.369 15.2604 24.9297 12.7987 26.0346 10.4468C26.1521 10.1963 26.1375 10.0569 25.919 9.86289C24.2318 8.36737 23.5676 6.4939 24.1112 4.32471C24.6897 2.0174 26.2334 0.585921 28.6102 0.128853C30.5863 -0.25099 32.3002 0.311555 33.7302 1.7085C33.915 1.88932 34.0687 1.9634 34.3392 1.84223C37.499 0.433356 40.6861 0.36241 43.8858 1.7041C44.1633 1.82025 44.3208 1.77945 44.5336 1.58544C46.6735 -0.370907 49.6568 -0.52724 51.9891 1.18111C54.6104 3.10105 54.9502 7.14308 52.6642 9.44537C52.3244 9.78692 52.2851 10.0318 52.4959 10.4819C53.4985 12.6248 54.0872 14.8768 54.0269 17.2557C53.9335 20.9122 52.2673 23.5755 48.856 25.1025C46.8799 25.9871 44.7876 26.4071 42.6381 26.5735C41.5186 26.6582 40.3971 26.7085 39.2764 26.775ZM39.2325 25.5595C39.6993 25.5595 40.1666 25.5733 40.6321 25.557C43.0184 25.4741 45.3629 25.1747 47.626 24.3572C51.0189 23.131 52.9162 20.5167 52.8985 16.9437C52.8864 14.5346 52.233 12.2776 51.1154 10.146C49.5761 7.21026 47.4685 4.79685 44.4904 3.21343C41.1642 1.44543 37.7828 1.36005 34.3894 3.0232C32.0367 4.17654 30.1755 5.89808 28.7029 8.02959C26.8919 10.6508 25.7127 13.5012 25.6282 16.7227C25.5926 18.0656 25.7914 19.3678 26.3915 20.5902C27.3364 22.5139 28.9861 23.6208 30.9273 24.3635C33.5994 25.3856 36.4112 25.535 39.2325 25.5595Z" fill="#DFDFDF"/>
<path d="M82.5175 42.179C82.3003 42.2739 82.181 42.3103 82.0774 42.3724C80.77 43.1591 79.4517 43.9288 78.1703 44.7538C77.8813 44.9397 77.6553 45.2938 77.5137 45.619C76.3599 48.266 75.3324 50.9713 74.07 53.5656C72.7651 56.2477 71.1071 58.7352 68.9157 60.8209C68.0292 61.6641 67.0539 62.4018 65.8607 62.786C65.5311 62.8921 65.1819 62.9656 64.8371 62.9926C63.3861 63.1043 62.3586 61.9259 62.586 60.49C62.7676 59.3429 63.2115 58.3089 63.8001 57.3207C64.9203 55.4403 66.3636 53.8173 67.9441 52.3149C70.3965 49.9837 72.9969 47.8246 75.7731 45.8758C75.9281 45.7665 76.0595 45.5851 76.1344 45.4093C76.8171 43.8008 77.4292 42.1602 78.1741 40.5806C78.7259 39.4109 79.3444 38.2494 80.4531 37.4539C81.0475 37.027 81.8603 36.936 82.5156 37.3183C82.3003 37.2919 82.1873 37.2649 82.0743 37.2675C81.9784 37.2693 81.8406 37.2719 81.7936 37.3309C81.2627 37.9895 80.6322 38.601 80.2499 39.3381C79.4739 40.8348 78.8338 42.4 78.1423 43.9395C78.1093 44.0123 78.1195 44.1046 78.0979 44.2911C78.4986 44.023 78.8205 43.7932 79.1571 43.5854C80.295 42.8841 81.4418 42.1966 82.5753 41.4878C82.7486 41.3792 82.9176 41.2084 83.0026 41.027C83.5589 39.8378 84.0872 38.6355 84.6346 37.4426C84.7667 37.1557 84.914 36.8694 85.0956 36.6114C85.5497 35.9666 85.7173 35.9245 86.4082 36.2811C86.499 36.3276 86.5777 36.5662 86.5365 36.6647C86.311 37.2084 86.0621 37.744 85.791 38.267C85.4684 38.8885 85.114 39.495 84.7737 40.1078C84.801 40.1379 84.8283 40.1681 84.8556 40.1982C85.1934 40.0218 85.535 39.851 85.8684 39.6671C88.5894 38.169 91.4247 36.9316 94.3991 36.0174C94.7109 35.9214 95.0811 35.7625 95.3548 36.1951C95.4075 36.2786 95.7485 36.1844 95.9993 36.2365C95.8386 36.3194 95.6843 36.4199 95.5161 36.4833C93.8828 37.0954 92.2223 37.6442 90.6183 38.3222C88.5151 39.2112 86.452 40.1919 84.3844 41.1601C84.1793 41.2561 84.0225 41.5223 83.9145 41.7433C82.9195 43.7857 82.1848 45.9247 81.5237 48.092C81.4583 48.3061 81.2151 48.6571 81.118 48.637C80.7325 48.5592 80.7427 48.2063 80.8252 47.9024C81.2145 46.4716 81.612 45.0433 82.0216 43.6181C82.1511 43.166 82.3264 42.7278 82.5175 42.179ZM75.6918 46.5796C75.6537 46.5576 75.615 46.5356 75.5769 46.5143C75.5198 46.5513 75.4601 46.5865 75.4048 46.626C72.2584 48.8894 69.3608 51.424 66.8621 54.3811C65.7191 55.7341 64.7393 57.2014 64.0503 58.8375C63.7404 59.5727 63.5023 60.3349 63.6541 61.1486C63.7563 61.6961 64.0706 61.9485 64.6263 61.9347C65.5515 61.9127 66.2925 61.4362 66.9821 60.9031C68.8338 59.4723 70.2251 57.6584 71.4094 55.6657C72.741 53.4255 73.9297 51.1189 74.8886 48.6985C75.1673 47.9972 75.4245 47.2865 75.6918 46.5796Z" fill="#DFDFDF"/>
<path d="M1.56968 45.953C1.07057 45.5185 0.565105 45.0916 0.0805962 44.642C0.00566567 44.573 0.0094757 44.401 0.0094757 44.276C0.00566567 40.9447 -0.0108444 37.6121 0.0113807 34.2802C0.0310659 31.3274 2.29041 28.5022 5.56894 27.8957C8.6303 27.3294 12.0682 28.8889 13.377 31.6652C14.7028 34.4779 14.0774 37.6837 11.2376 39.7656C10.0349 40.6477 8.68745 41.0772 7.20217 41.0985C6.59638 41.1073 5.99058 41.0784 5.30097 41.0652C5.46163 40.4374 5.59434 39.9182 5.72896 39.3939C7.16979 39.6413 8.50965 39.4837 9.75362 38.8013C11.7628 37.6994 12.7547 35.5886 12.3222 33.3943C11.9133 31.3199 10.1029 29.658 7.92925 29.3617C5.16635 28.9843 2.65744 30.456 1.91766 32.9184C1.77923 33.3798 1.70113 33.8777 1.69859 34.3587C1.68081 38.066 1.68843 41.7728 1.68779 45.4802C1.68779 45.6208 1.68779 45.7609 1.68779 45.9015C1.64842 45.9184 1.60905 45.9354 1.56968 45.953Z" fill="#DFDFDF"/>
<path d="M57.2087 22.8779C57.7122 23.325 58.2228 23.7644 58.7124 24.2259C58.7867 24.2956 58.7797 24.4682 58.7797 24.5932C58.7791 27.8693 58.7702 31.1453 58.7714 34.4214C58.7727 38.1853 55.8383 40.5196 52.9021 40.9698C49.755 41.4526 46.9686 39.7417 45.6224 37.5719C44.2228 35.3161 44.421 31.6376 46.9743 29.5079C48.713 28.0582 50.6726 27.5001 52.9072 27.8146C53.3948 27.8831 53.4342 27.9408 53.3053 28.4211C53.0767 29.2731 53.0761 29.2857 52.1909 29.2555C50.0795 29.1846 48.3516 29.9229 47.1705 31.6809C45.4992 34.1684 46.4155 37.5097 49.1041 38.9017C51.4886 40.136 54.3289 39.5804 56.0288 37.5311C56.7686 36.6396 57.1071 35.5961 57.1045 34.4459C57.0963 30.8094 57.0861 27.1724 57.0766 23.5359C57.076 23.3306 57.0766 23.1259 57.0766 22.9206C57.1204 22.9068 57.1649 22.8924 57.2087 22.8779Z" fill="#DFDFDF"/>
<path d="M28.713 37.1782C28.713 38.3177 28.7003 39.4578 28.7207 40.5967C28.7277 40.9691 28.5848 41.0664 28.2336 41.0614C27.1586 41.0475 27.1586 41.0576 27.1586 39.989C27.1586 38.1425 27.1611 36.296 27.1579 34.4496C27.1528 31.311 24.0254 28.7381 20.8949 29.2937C18.0132 29.8054 16.1476 32.0788 16.3387 34.8451C16.4975 37.1386 18.445 39.2099 20.7564 39.4848C21.4156 39.5633 22.0925 39.5319 22.7586 39.4968C23.0799 39.4798 23.1866 39.5614 23.2476 39.8672C23.4666 40.9684 23.4406 40.9917 22.3046 41.0475C20.472 41.1379 18.7905 40.7185 17.3458 39.584C14.0482 36.9948 14.0914 32.6188 16.4619 30.0271C19.6985 26.4898 25.5558 27.1792 27.9396 31.3449C28.4413 32.2214 28.6953 33.1493 28.7016 34.1482C28.708 35.1578 28.7029 36.1673 28.7029 37.1775C28.7067 37.1782 28.7099 37.1782 28.713 37.1782Z" fill="#DFDFDF"/>
<path d="M73.8827 37.3359C73.8827 38.4177 73.8706 39.4995 73.8897 40.5812C73.896 40.9416 73.7741 41.0546 73.4128 41.0528C72.3529 41.0477 72.3517 41.0609 72.351 40.0018C72.3491 38.1986 72.3485 36.3954 72.3479 34.5929C72.346 31.8348 70.2701 29.5532 67.4958 29.2607C64.7215 28.9681 62.13 30.7618 61.5915 33.4389C61.1419 35.6753 62.1116 37.7698 64.2928 38.9407C65.4098 39.5403 66.6068 39.7123 67.852 39.5189C68.2476 39.4574 68.4394 39.5528 68.435 39.9609C68.4343 40.0319 68.4578 40.1028 68.4724 40.1738C68.6267 40.909 68.6299 40.9441 67.8946 41.0119C65.1304 41.2662 62.8025 40.4036 61.1597 38.1515C58.9093 35.0663 59.8376 30.802 63.1695 28.7785C66.7484 26.6049 71.9015 27.8863 73.6033 32.4375C73.8109 32.9925 73.8604 33.6223 73.8865 34.2219C73.9309 35.2584 73.8985 36.2981 73.8985 37.3372C73.8935 37.3359 73.8884 37.3359 73.8827 37.3359Z" fill="#DFDFDF"/>
<path d="M30.0451 37.0773C30.0451 36.111 30.0248 35.1442 30.0489 34.1785C30.1124 31.6402 31.4466 29.864 33.6018 28.6649C37.3883 26.5585 41.8054 28.3208 43.4824 31.9767C43.8107 32.6918 43.9904 33.5268 44.0184 34.3142C44.0914 36.3885 44.0336 38.4673 44.0527 40.5442C44.0565 40.9511 43.9219 41.0685 43.5263 41.0572C42.3312 41.0226 42.521 41.2116 42.5147 40.0445C42.5052 38.1986 42.5433 36.3515 42.5045 34.5063C42.455 32.145 41.1793 30.549 39.0736 29.6223C37.0562 28.7339 35.1544 29.1257 33.4773 30.4988C32.133 31.5994 31.4624 33.0283 31.4878 34.78C31.5158 36.6981 31.4853 38.6167 31.5012 40.5348C31.5043 40.9153 31.418 41.0747 30.9957 41.0634C29.8794 41.0327 30.0667 41.1576 30.0578 40.1506C30.0483 39.1266 30.0559 38.1025 30.0559 37.0785C30.0521 37.0773 30.0483 37.0773 30.0451 37.0773Z" fill="#DFDFDF"/>
<path d="M93.0447 44.9824C93.3171 45.059 93.5876 45.1438 93.8626 45.2097C94.6341 45.3949 94.8475 45.9468 94.2848 46.498C93.9337 46.8421 93.453 47.0643 93.0117 47.3092C92.2211 47.7474 91.3251 47.7386 90.4646 47.7706C89.6988 47.7989 89.1832 47.2288 89.067 46.4164C89.0206 46.093 89.013 45.7641 88.98 45.3315C88.7197 45.5029 88.5057 45.614 88.3279 45.7666C87.8649 46.1621 87.4414 46.6079 86.9531 46.9683C86.7403 47.1258 86.3759 47.2282 86.1396 47.1591C85.9752 47.1108 85.8323 46.7316 85.819 46.4924C85.7936 46.0296 85.8659 45.5619 85.9053 44.9887C85.6958 45.1507 85.5484 45.2373 85.4367 45.3566C84.782 46.051 84.1451 46.7617 83.4783 47.4448C83.3653 47.5603 83.1399 47.5685 82.9665 47.6269C82.9303 47.4686 82.8338 47.296 82.8681 47.1541C83.0554 46.385 83.2675 45.6222 83.4866 44.8612C83.5596 44.6076 83.6764 44.3665 83.7692 44.1304C84.4918 44.2792 84.4918 44.2792 84.5147 45.2988C84.6785 45.0766 84.822 44.8355 85.01 44.6358C85.3325 44.293 85.6412 43.9113 86.0323 43.6658C86.4641 43.3952 87.0401 43.6752 87.1664 44.1719C87.242 44.4688 87.2166 44.794 87.2128 45.1061C87.2103 45.2888 87.1601 45.4715 87.1106 45.7879C87.4236 45.5405 87.6313 45.3553 87.8605 45.2003C88.1939 44.9742 88.5241 44.7287 88.8898 44.568C89.3604 44.3608 89.7617 44.5919 89.8881 45.086C89.949 45.3227 89.9751 45.5682 90.0265 45.8074C90.1109 46.2035 90.1922 46.5834 90.6164 46.81C90.7675 46.891 90.8183 47.1554 90.8717 47.2558C91.2546 47.1516 91.6762 47.0631 92.0788 46.9205C92.5138 46.7661 92.9361 46.5727 93.3526 46.3724C93.4854 46.3084 93.5812 46.1696 93.7641 46.0008C93.4003 45.9185 93.1253 45.8645 92.8561 45.7929C92.4128 45.6755 92.1023 45.4181 92.0382 44.946C91.9722 44.4644 92.1468 44.1562 92.6395 43.9057C92.9615 43.7424 93.2942 43.5968 93.6314 43.468C94.0632 43.3036 94.4188 43.4134 94.61 43.8146C94.6697 43.9402 94.5992 44.2397 94.4906 44.3075C94.2163 44.4789 93.888 44.5686 93.5781 44.6817C93.4054 44.7444 93.2263 44.7884 93.0497 44.8411C93.0478 44.887 93.0466 44.9347 93.0447 44.9824Z" fill="#DFDFDF"/>
<path d="M79.641 28.1004C79.641 29.3134 78.7189 30.2106 77.4724 30.2106C76.2627 30.2106 75.2975 29.292 75.2937 28.1374C75.2893 26.9257 76.2488 25.9915 77.4985 25.9902C78.6821 25.9896 79.641 26.9339 79.641 28.1004ZM77.5137 29.7962C78.4821 29.7931 79.2371 29.0591 79.2396 28.118C79.2422 27.1593 78.4757 26.4109 77.487 26.4071C76.4736 26.4034 75.6944 27.1656 75.7135 28.1437C75.7319 29.1081 76.485 29.7993 77.5137 29.7962Z" fill="#DFDFDF"/>
<path d="M78.8738 46.7923C79.1291 45.9573 79.3462 45.1084 79.6561 44.2941C79.813 43.8829 80.2086 44.0574 80.5305 44.1629C80.8601 44.2709 80.8347 44.4875 80.747 44.7462C80.5623 45.2899 80.387 45.8361 80.2111 46.383C80.1806 46.4778 80.1184 46.5996 80.152 46.6718C80.3584 47.1119 80.0682 47.2864 79.7615 47.4892C79.3253 47.778 79.0586 47.6788 78.9678 47.1565C78.9481 47.0434 78.9474 46.9273 78.9386 46.813C78.9163 46.8061 78.8947 46.7992 78.8738 46.7923Z" fill="#DFDFDF"/>
<path d="M20.8674 45.791C19.9098 45.7929 19.1833 45.0916 19.1922 44.1737C19.2005 43.3053 19.9644 42.5821 20.8699 42.5852C21.778 42.5877 22.5508 43.3166 22.5558 44.1743C22.5616 45.0777 21.8186 45.7891 20.8674 45.791ZM20.8858 42.9431C20.1536 42.9381 19.6202 43.4529 19.6101 44.1755C19.5999 44.8825 20.1498 45.4431 20.861 45.45C21.557 45.457 22.1456 44.8856 22.1507 44.1994C22.1552 43.4975 21.6027 42.9481 20.8858 42.9431Z" fill="#DFDFDF"/>
<path d="M64.6143 45.7903C63.6948 45.7847 62.9595 45.0564 62.983 44.1743C63.0071 43.2827 63.7539 42.5739 64.6562 42.5871C65.5859 42.6009 66.3091 43.3022 66.3091 44.1912C66.3091 45.1054 65.5776 45.796 64.6143 45.7903ZM64.6333 42.9418C63.9336 42.9437 63.3519 43.5138 63.3494 44.2C63.3468 44.8592 63.9666 45.4551 64.6511 45.4513C65.3611 45.4469 65.9275 44.8806 65.9192 44.1824C65.9116 43.4742 65.3573 42.9393 64.6333 42.9418Z" fill="#DFDFDF"/>
<path d="M27.6773 44.1681C27.6773 43.7788 27.6887 43.3889 27.6735 43.0003C27.664 42.7535 27.7617 42.6631 28.0037 42.6725C28.2952 42.6838 28.5873 42.6738 28.8787 42.6801C29.6376 42.6976 30.2237 43.2213 30.298 43.942C30.3881 44.8204 29.9417 45.5386 29.1626 45.6849C28.7803 45.7565 28.3783 45.7559 27.9884 45.7345C27.8811 45.7289 27.7065 45.538 27.6963 45.4206C27.6601 45.0056 27.6824 44.5856 27.6824 44.1674C27.6798 44.1681 27.6786 44.1681 27.6773 44.1681ZM28.0589 44.1712C28.0589 44.4738 28.0443 44.7777 28.0672 45.079C28.0754 45.1845 28.1504 45.3421 28.2361 45.3766C28.8521 45.6259 29.7061 45.1757 29.8655 44.5372C30.1005 43.5967 29.5271 42.9607 28.4685 42.9588C28.1713 42.9582 28.0342 43.0386 28.0551 43.3493C28.0735 43.6218 28.0589 43.8968 28.0589 44.1712Z" fill="#DFDFDF"/>
<path d="M71.8068 43.1973C71.8068 43.9576 71.8163 44.6476 71.7979 45.3363C71.7947 45.4613 71.6785 45.5837 71.6144 45.7074C71.5649 45.5875 71.4747 45.4682 71.4728 45.3476C71.4607 44.473 71.4664 43.5978 71.4664 42.7233C71.5058 42.6925 71.5458 42.6624 71.5852 42.6316C71.73 42.7251 71.9205 42.7879 72.0119 42.9185C72.5072 43.6255 72.9784 44.3487 73.5289 45.1737C73.5588 44.9521 73.5835 44.8535 73.5835 44.7543C73.5835 44.1635 73.5702 43.5734 73.5823 42.9832C73.5842 42.8877 73.6915 42.7942 73.7499 42.6994C73.8058 42.7842 73.908 42.8683 73.9093 42.9537C73.9201 43.7743 73.9207 44.5955 73.9049 45.4161C73.903 45.5165 73.762 45.7074 73.7315 45.6986C73.5924 45.659 73.4254 45.5931 73.3486 45.4826C72.9219 44.8661 72.5199 44.2326 72.1065 43.6073C72.0233 43.4792 71.9268 43.3599 71.8068 43.1973Z" fill="#DFDFDF"/>
<path d="M12.8544 44.3181C13.022 44.2741 13.2176 44.2722 13.3421 44.1787C13.511 44.0506 13.7294 43.8553 13.7345 43.6833C13.7402 43.4862 13.5828 43.1986 13.41 43.1038C13.1884 42.9814 12.8792 42.9839 12.6099 42.9933C12.5375 42.9958 12.4163 43.2149 12.4131 43.3374C12.394 43.9997 12.4143 44.6627 12.3985 45.3251C12.3953 45.4563 12.2937 45.585 12.2378 45.7144C12.1718 45.5919 12.0518 45.4708 12.0492 45.3471C12.0327 44.4731 12.0403 43.5985 12.0403 42.6919C12.5293 42.6919 12.9738 42.6091 13.3618 42.7196C13.6469 42.8006 13.9574 43.0919 14.0774 43.3662C14.2336 43.7235 14.1454 44.1366 13.7707 44.4022C13.6653 44.4769 13.5504 44.5391 13.4399 44.6069C13.6628 44.9641 13.8774 45.3075 14.1066 45.6748C13.7021 45.737 13.283 45.2529 12.8544 44.3181Z" fill="#DFDFDF"/>
<path d="M45.6638 43.5099C45.4873 43.4126 45.3012 43.3297 45.1368 43.2155C44.6967 42.9103 44.2376 42.8237 43.7486 43.0767C43.226 43.3473 43.0044 43.7874 43.0717 44.3606C43.1333 44.8861 43.4553 45.2208 43.9442 45.389C44.3944 45.5441 44.7977 45.4204 45.1685 45.136C45.2981 45.0362 45.4657 44.9853 45.686 44.878C45.5317 45.5259 44.9418 45.8354 44.157 45.7896C43.3886 45.7444 42.7237 45.1097 42.6514 44.3531C42.5783 43.5821 43.0774 42.8821 43.8509 42.6724C44.6815 42.4476 45.4054 42.7308 45.6638 43.5099Z" fill="#DFDFDF"/>
<path d="M37.4874 43.9412C37.4874 44.2865 37.5116 44.6337 37.4817 44.9765C37.4405 45.4512 37.1204 45.7525 36.674 45.7921C36.0193 45.8499 35.6059 45.6621 35.5374 45.1278C35.4408 44.377 35.4586 43.611 35.4434 42.8513C35.4421 42.796 35.5697 42.7383 35.637 42.6812C35.6974 42.7603 35.8079 42.8387 35.8098 42.9191C35.825 43.5375 35.811 44.1572 35.8231 44.7756C35.832 45.2076 36.1387 45.4782 36.5508 45.4524C36.902 45.4311 37.0912 45.2195 37.116 44.9031C37.1572 44.3876 37.1547 43.869 37.1693 43.3517C37.1725 43.2368 37.1439 43.1144 37.175 43.0083C37.2087 42.8927 37.295 42.7923 37.3579 42.6855C37.4081 42.7873 37.4951 42.8865 37.5014 42.9907C37.5205 43.3065 37.5084 43.6235 37.5084 43.9406C37.5014 43.9412 37.4944 43.9412 37.4874 43.9412Z" fill="#DFDFDF"/>
<path d="M4.99363 42.6851C5.41781 42.6851 5.7677 42.6701 6.11568 42.6889C6.59067 42.7147 6.91262 43.0706 6.91897 43.5453C6.92532 44.0206 6.61289 44.3866 6.14235 44.4261C5.89915 44.4469 5.65213 44.4299 5.34606 44.4299C5.34606 44.8072 5.35685 45.1331 5.33907 45.4583C5.33399 45.5494 5.24255 45.6354 5.19048 45.7239C5.12508 45.6473 5.00316 45.5713 5.00252 45.4941C4.98919 44.5749 4.99363 43.6558 4.99363 42.6851ZM5.37781 43.0141C5.37781 43.4065 5.37781 43.7575 5.37781 44.1417C5.77913 44.1417 6.19189 44.2365 6.42811 43.8693C6.52717 43.7154 6.53606 43.3858 6.43319 43.2477C6.18426 42.9131 5.78548 42.9426 5.37781 43.0141Z" fill="#DFDFDF"/>
<path d="M51.3838 45.7326C51.3838 45.425 51.3838 45.1167 51.3838 44.8091C51.3832 44.3332 51.3718 43.8566 51.3864 43.3807C51.3953 43.1026 51.3464 42.9306 51.0054 42.9714C50.9279 42.9808 50.8358 42.8709 50.7507 42.8163C50.8282 42.7686 50.9044 42.6826 50.9831 42.6801C51.3768 42.6675 51.7712 42.6694 52.1649 42.6857C52.2392 42.6889 52.3097 42.7793 52.3821 42.8295C52.3071 42.8778 52.2271 42.9739 52.1579 42.967C51.7807 42.9293 51.7274 43.1302 51.7344 43.4379C51.749 44.0726 51.7464 44.708 51.7299 45.3421C51.7261 45.4878 51.6353 45.6309 51.5851 45.7753C51.5172 45.7603 51.4505 45.7464 51.3838 45.7326Z" fill="#DFDFDF"/>
<path d="M57.8128 44.2233C57.8128 44.6402 57.8223 45.0571 57.8052 45.4727C57.8014 45.56 57.7004 45.6435 57.6439 45.7289C57.5747 45.6366 57.4464 45.5456 57.4445 45.4526C57.4305 44.6051 57.4331 43.7575 57.4483 42.9099C57.4496 42.8346 57.5728 42.7611 57.6388 42.687C57.6966 42.768 57.8014 42.8477 57.8045 42.9306C57.8217 43.3607 57.8121 43.792 57.8128 44.2233Z" fill="#DFDFDF"/>
<path d="M81.6882 39.7926C81.445 39.8051 81.1484 39.2476 81.2748 39.1057C81.41 38.9538 81.6177 38.7817 81.7987 38.7767C81.9777 38.7717 82.167 38.9575 82.3397 39.0768C82.3702 39.0982 82.3702 39.235 82.3359 39.2645C82.1104 39.4617 81.873 39.6444 81.6882 39.7926Z" fill="#DFDFDF"/>
<path d="M43.2254 4.99951C43.4521 5.24374 43.6979 5.47353 43.8992 5.7366C44.1144 6.01787 44.324 6.11204 44.6745 5.94943C44.8949 5.8471 45.1679 5.85714 45.4175 5.81696C45.4416 5.88351 45.4657 5.94943 45.4899 6.01599C45.3006 6.14783 45.1273 6.31923 44.9177 6.40211C44.6034 6.52705 44.6174 6.66392 44.7685 6.92008C45.0257 7.35454 45.2232 7.82354 45.4848 8.25486C45.5559 8.37227 45.7934 8.49721 45.9121 8.46519C47.4457 8.05144 48.6211 8.64915 49.3437 9.91613C50.0194 11.1009 50.462 12.3258 50.0244 13.7121C49.7311 14.6425 49.1024 15.303 48.3144 15.831C48.0832 15.9855 48.0286 16.1274 48.0648 16.3967C48.1359 16.9235 48.1696 17.459 48.1721 17.9908C48.1734 18.2708 48.2769 18.3311 48.5277 18.3411C48.8294 18.353 49.1297 18.4114 49.4282 18.5138C49.0846 18.9658 48.6122 18.7009 48.1759 18.8239C48.0877 19.1705 48.0127 19.5491 47.887 19.9101C47.84 20.0444 47.673 20.1374 47.5606 20.2491C47.4927 20.111 47.3739 19.9748 47.3682 19.8335C47.3542 19.507 47.3949 19.1774 47.4152 18.8208C47.3022 18.807 47.2101 18.817 47.1409 18.7825C47.0386 18.7316 46.9516 18.65 46.8583 18.5816C46.9504 18.5069 47.0469 18.3637 47.1339 18.3694C47.4425 18.3895 47.5155 18.2243 47.5168 17.9789C47.52 17.4389 47.5181 16.8983 47.5181 16.359C46.8272 16.5511 46.1712 16.7872 45.4937 16.9122C43.6604 17.2493 41.8348 17.2851 40.0828 16.5166C39.7399 16.3659 39.4097 16.1669 39.1132 15.9396C38.7366 15.6508 38.6845 15.1969 38.9722 14.8277C40.5235 12.8381 42.1269 10.8956 44.1805 9.3743C44.2853 9.29645 44.3907 9.2186 44.5012 9.14891C45.1565 8.73328 45.1622 8.73139 44.8352 8.04642C44.6923 7.74694 44.5107 7.46504 44.371 7.1643C44.2275 6.85666 44.0643 6.79827 43.7639 6.99479C43.5982 7.1034 43.2235 7.20574 43.1867 7.15112C42.981 6.84473 43.3055 6.72482 43.4953 6.61369C43.8293 6.41843 43.8147 6.22066 43.5906 5.96325C43.4579 5.81068 43.3232 5.6556 43.2178 5.4842C43.1461 5.36805 43.1238 5.2224 43.08 5.08992C43.1283 5.05978 43.1765 5.02965 43.2254 4.99951ZM44.7545 13.6562C44.7234 13.611 44.6923 13.5658 44.6612 13.5206C43.2134 14.068 41.7649 14.6149 40.3171 15.1624C40.3235 15.2113 40.3292 15.2609 40.3355 15.3099C41.2849 15.7293 42.2856 15.9867 43.3061 15.6169C44.1894 15.2967 44.5374 14.4975 44.7545 13.6562Z" fill="#DFDFDF"/>
<path d="M30.9628 18.5528C30.6574 18.534 30.3444 18.5503 30.0484 18.4894C28.9181 18.2564 28.2323 17.5652 27.9929 16.4489C27.8056 15.5737 27.7561 14.6897 28.1072 13.8503C28.607 12.6561 29.8338 12.0295 31.2651 12.1833C33.5702 12.4313 35.6003 13.397 37.5466 14.566C38.0171 14.8485 38.0558 15.3954 37.6552 15.7821C36.8081 16.6002 35.7838 17.1584 34.7119 17.6211C33.5194 18.1359 32.297 18.5679 30.9628 18.5528ZM32.7237 14.7399C33.4686 16.2988 35.0345 16.2254 36.4239 14.991C35.1545 14.905 33.9791 14.8253 32.7237 14.7399Z" fill="#DFDFDF"/>
<path d="M36.4384 21.8408C36.5444 21.8408 36.6511 21.8345 36.7565 21.8414C38.5301 21.9613 40.1855 21.4779 41.815 20.8701C42.0017 20.8005 42.1674 20.6692 42.335 20.5562C42.6938 20.3145 42.8392 20.0113 42.6036 19.6007C42.457 19.3445 42.429 19.0821 42.744 18.9439C43.0367 18.8159 43.2774 18.9377 43.4476 19.207C43.7759 19.7262 43.6298 20.4903 43.0437 20.8953C42.6316 21.1797 42.1706 21.4333 41.693 21.5796C40.3386 21.994 38.9511 22.2658 37.5204 22.1823C37.1521 22.161 36.7883 22.0712 36.4219 22.0134C36.4276 21.9557 36.4333 21.8985 36.4384 21.8408Z" fill="#DFDFDF"/>
<path d="M78.1613 29.4313C78.0451 29.1896 77.9682 29.0383 77.8984 28.8832C77.8343 28.7413 77.8114 28.5586 77.7066 28.4625C77.6057 28.3702 77.4221 28.337 77.2761 28.3401C77.231 28.3414 77.1713 28.5435 77.1529 28.6597C77.13 28.8009 77.1631 28.951 77.1345 29.0904C77.118 29.1701 77.0278 29.2348 76.9713 29.3064C76.9084 29.2392 76.7916 29.1733 76.7903 29.1048C76.7744 28.4563 76.7751 27.8077 76.7808 27.1591C76.7814 27.0995 76.8551 26.9884 76.89 26.9903C77.285 27.0116 77.7282 26.9501 78.0597 27.1108C78.4153 27.2835 78.367 27.6752 78.1378 28.0168C78.0724 28.1147 78.1124 28.293 78.1295 28.4318C78.1651 28.7212 78.4318 28.9924 78.1613 29.4313ZM76.9726 27.5905C77.1777 27.7989 77.2843 28.003 77.4126 28.0174C77.6666 28.0463 77.9117 27.9245 77.9251 27.6175C77.939 27.2966 77.6895 27.1861 77.4348 27.2081C77.3034 27.22 77.1872 27.4053 76.9726 27.5905Z" fill="#DFDFDF"/>
</svg>
