<svg width="39" height="39" viewBox="0 0 39 39" fill="none" xmlns="http://www.w3.org/2000/svg">
<g id="fi-sr-rewind" clip-path="url(#clip0_315_1819)">
<path id="Vector" d="M22.0673 5.43348C23.3732 5.43468 24.6446 5.85315 25.6959 6.62786L36.4875 14.5416C37.2654 15.1128 37.898 15.8592 38.3339 16.7202C38.7699 17.5812 38.9971 18.5328 38.9971 19.4979C38.9971 20.463 38.7699 21.4145 38.3339 22.2755C37.898 23.1366 37.2654 23.8829 36.4875 24.4541L25.6959 32.3679C24.8108 33.0183 23.7676 33.4196 22.6748 33.5303C21.5821 33.6409 20.4796 33.4567 19.4821 32.9969C18.4846 32.537 17.6286 31.8183 17.003 30.9155C16.3774 30.0127 16.0051 28.9588 15.9248 27.8634L9.77905 32.3711C8.86275 33.0413 7.7788 33.4448 6.64729 33.5369C5.51577 33.6289 4.38086 33.4059 3.3683 32.8925C2.35574 32.3792 1.50506 31.5955 0.910511 30.6284C0.31596 29.6613 0.000748119 28.5485 -0.000201641 27.4132L-0.000200258 11.5857C8.97585e-05 10.4497 0.315108 9.33588 0.909903 8.36796C1.5047 7.40003 2.35602 6.61581 3.36941 6.1023C4.3828 5.58879 5.51864 5.36606 6.65092 5.45883C7.78319 5.5516 8.86763 5.95624 9.78392 6.62786L15.9248 11.1356C16.04 9.58625 16.7365 8.13767 17.8747 7.0802C19.013 6.02274 20.5088 5.43454 22.0624 5.43348L22.0673 5.43348Z" fill="white"/>
</g>
<defs>
<clipPath id="clip0_315_1819">
<rect width="39" height="39" fill="white" transform="translate(39 39) rotate(-180)"/>
</clipPath>
</defs>
</svg>
