<svg width="39" height="39" viewBox="0 0 39 39" fill="none" xmlns="http://www.w3.org/2000/svg">
<g id="fi-sr-rewind" clip-path="url(#clip0_315_1818)">
<path id="Vector" d="M16.9327 33.5665C15.6268 33.5653 14.3554 33.1468 13.3041 32.3721L2.51245 24.4584C1.73455 23.8872 1.10204 23.1408 0.666069 22.2798C0.230102 21.4188 0.00292969 20.4672 0.00292969 19.5021C0.00292969 18.537 0.230102 17.5855 0.666069 16.7245C1.10204 15.8634 1.73455 15.1171 2.51245 14.5459L13.3041 6.63214C14.1892 5.98174 15.2324 5.58035 16.3252 5.46973C17.4179 5.35912 18.5204 5.54331 19.5179 6.00315C20.5154 6.46299 21.3714 7.18168 21.997 8.08448C22.6226 8.98728 22.9949 10.0412 23.0752 11.1366L29.221 6.62889C30.1372 5.95866 31.2212 5.55517 32.3527 5.46314C33.4842 5.37111 34.6191 5.59412 35.6317 6.10746C36.6443 6.62081 37.4949 7.40445 38.0895 8.37157C38.684 9.33868 38.9993 10.4515 39.0002 11.5868V27.4143C38.9999 28.5503 38.6849 29.6641 38.0901 30.632C37.4953 31.6 36.644 32.3842 35.6306 32.8977C34.6172 33.4112 33.4814 33.6339 32.3491 33.5412C31.2168 33.4484 30.1324 33.0438 29.2161 32.3721L23.0752 27.8644C22.96 29.4138 22.2635 30.8623 21.1253 31.9198C19.9871 32.9773 18.4912 33.5655 16.9376 33.5665H16.9327Z" fill="white"/>
</g>
<defs>
<clipPath id="clip0_315_1818">
<rect width="39" height="39" fill="white"/>
</clipPath>
</defs>
</svg>
