<svg width="22" height="22" viewBox="0 0 22 22" fill="none" xmlns="http://www.w3.org/2000/svg">
<path d="M14.4375 8.73112L10.2337 4.52729C9.97577 4.26947 9.62597 4.12467 9.26127 4.12476C8.89656 4.12484 8.54683 4.2698 8.28901 4.52775C8.03118 4.78569 7.88639 5.13549 7.88647 5.5002C7.88656 5.8649 8.03152 6.21463 8.28947 6.47246L12.4933 10.6754C12.536 10.7179 12.5698 10.7685 12.5929 10.8242C12.6161 10.8799 12.6279 10.9396 12.6279 10.9999C12.6279 11.0602 12.6161 11.1199 12.5929 11.1755C12.5698 11.2312 12.536 11.2818 12.4933 11.3244L8.28947 15.5273C8.03152 15.7851 7.88656 16.1348 7.88647 16.4995C7.88639 16.8643 8.03118 17.2141 8.28901 17.472C8.54683 17.7299 8.89656 17.8749 9.26127 17.875C9.62597 17.8751 9.97577 17.7303 10.2337 17.4725L14.4375 13.2686C15.0382 12.6663 15.3755 11.8505 15.3755 10.9999C15.3755 10.1493 15.0382 9.3334 14.4375 8.73112Z" fill="white"/>
</svg>
