<svg width="18" height="18" viewBox="0 0 18 18" fill="none" xmlns="http://www.w3.org/2000/svg">
<g id="Group">
<path id="Vector" d="M17.6709 16.0842L14.187 12.5988C16.7938 9.11525 16.083 4.178 12.5994 1.57121C9.11586 -1.03558 4.17861 -0.324797 1.57182 3.15878C-1.03497 6.64236 -0.324186 11.5796 3.15939 14.1864C5.95769 16.2804 9.8011 16.2804 12.5994 14.1864L16.0848 17.6717C16.5228 18.1097 17.2329 18.1097 17.6708 17.6717C18.1088 17.2337 18.1088 16.5236 17.6708 16.0857L17.6709 16.0842ZM7.90846 13.5137C4.81242 13.5137 2.30261 11.0039 2.30261 7.90785C2.30261 4.81181 4.81242 2.302 7.90846 2.302C11.0045 2.302 13.5143 4.81181 13.5143 7.90785C13.511 11.0025 11.0031 13.5104 7.90846 13.5137Z" fill="#DFDFDF"/>
</g>
</svg>
