<svg width="24" height="24" viewBox="0 0 24 24" fill="none" xmlns="http://www.w3.org/2000/svg">
<g id="fi-rr-interlining" clip-path="url(#clip0_164_1433)">
<path id="Vector" d="M10 6.00024H23C23.2652 6.00024 23.5196 5.89488 23.7071 5.70735C23.8946 5.51981 24 5.26546 24 5.00024C24 4.73503 23.8946 4.48067 23.7071 4.29314C23.5196 4.1056 23.2652 4.00024 23 4.00024H10C9.73478 4.00024 9.48043 4.1056 9.29289 4.29314C9.10536 4.48067 9 4.73503 9 5.00024C9 5.26546 9.10536 5.51981 9.29289 5.70735C9.48043 5.89488 9.73478 6.00024 10 6.00024Z" fill="#374957"/>
<path id="Vector_2" d="M23 10.9998H10C9.73478 10.9998 9.48043 11.1051 9.29289 11.2927C9.10536 11.4802 9 11.7345 9 11.9998C9 12.265 9.10536 12.5193 9.29289 12.7069C9.48043 12.8944 9.73478 12.9998 10 12.9998H23C23.2652 12.9998 23.5196 12.8944 23.7071 12.7069C23.8946 12.5193 24 12.265 24 11.9998C24 11.7345 23.8946 11.4802 23.7071 11.2927C23.5196 11.1051 23.2652 10.9998 23 10.9998Z" fill="#374957"/>
<path id="Vector_3" d="M23 18H10C9.73478 18 9.48043 18.1054 9.29289 18.2929C9.10536 18.4804 9 18.7348 9 19C9 19.2652 9.10536 19.5196 9.29289 19.7071C9.48043 19.8947 9.73478 20 10 20H23C23.2652 20 23.5196 19.8947 23.7071 19.7071C23.8946 19.5196 24 19.2652 24 19C24 18.7348 23.8946 18.4804 23.7071 18.2929C23.5196 18.1054 23.2652 18 23 18Z" fill="#374957"/>
<path id="Vector_4" d="M6.08695 6.00034C6.18588 6.00032 6.28259 5.97094 6.36483 5.91594C6.44706 5.86094 6.51113 5.78277 6.54892 5.69134C6.58672 5.59991 6.59654 5.49932 6.57714 5.4023C6.55774 5.30529 6.51 5.21621 6.43995 5.14634L3.99995 2.70734C3.81242 2.51987 3.55811 2.41455 3.29295 2.41455C3.02778 2.41455 2.77348 2.51987 2.58595 2.70734L0.146949 5.14634C0.0769025 5.21621 0.0291587 5.30529 0.00976023 5.4023C-0.00963825 5.49932 0.00018061 5.59991 0.0379741 5.69134C0.0757675 5.78277 0.139837 5.86094 0.222072 5.91594C0.304308 5.97094 0.401013 6.00032 0.499949 6.00034H2.29395V18.0003H0.499949C0.400928 18.0002 0.304085 18.0294 0.221695 18.0843C0.139306 18.1392 0.075082 18.2174 0.0371645 18.3089C-0.000753071 18.4003 -0.0106562 18.501 0.00871061 18.5981C0.0280774 18.6952 0.0758419 18.7844 0.145949 18.8543L2.58595 21.2933C2.77348 21.4808 3.02778 21.5861 3.29295 21.5861C3.55811 21.5861 3.81242 21.4808 3.99995 21.2933L6.43995 18.8543C6.51 18.7845 6.55774 18.6954 6.57714 18.5984C6.59654 18.5014 6.58672 18.4008 6.54892 18.3093C6.51113 18.2179 6.44706 18.1397 6.36483 18.0847C6.28259 18.0297 6.18588 18.0004 6.08695 18.0003H4.29395V6.00034H6.08695Z" fill="#374957"/>
</g>
<defs>
<clipPath id="clip0_164_1433">
<rect width="24" height="24" fill="white"/>
</clipPath>
</defs>
</svg>
