<svg width="22" height="22" viewBox="0 0 22 22" fill="none" xmlns="http://www.w3.org/2000/svg">
<path d="M19.962 19.9687L20.8196 18.9888C21.7122 18.0963 21.756 16.5825 20.7759 15.62L18.6319 13.9838C17.713 13.065 16.2166 13.065 15.3065 13.9838L13.9677 15.2875C10.6423 13.87 8.01703 11.2538 6.7044 8.03376L8.00828 6.69501C8.45458 6.24876 8.6996 5.66251 8.6996 5.03251C8.6996 4.40251 8.45458 3.81626 8.04328 3.41376L6.32811 1.19126C5.40926 0.272515 3.91286 0.272515 3.02026 1.17376L1.99641 2.06626C1.03381 3.02876 0.5 4.32376 0.5 5.73251C0.499999 12.5138 9.49594 21.5 16.2691 21.5C17.6693 21.5 18.9732 20.9662 19.9533 19.9863L19.962 19.9687ZM1.38384 5.71501C1.38384 4.54251 1.82139 3.46626 2.60022 2.68751L3.63283 1.79501C4.21039 1.21751 5.14673 1.21751 5.68929 1.75126L7.40447 3.97376C7.6845 4.25376 7.84201 4.62126 7.84201 5.02376C7.84201 5.42626 7.6845 5.79376 7.40447 6.07376L5.89056 7.62251C5.76805 7.74501 5.73305 7.92001 5.7943 8.08626C7.1857 11.735 10.1523 14.7013 13.9151 16.215C14.0727 16.2763 14.2564 16.2413 14.3877 16.1188L15.9366 14.605C16.5142 14.0275 17.4505 14.0275 18.0718 14.64L20.2158 16.2763C20.7934 16.8538 20.7934 17.79 20.1983 18.3938L19.3407 19.3738C18.5444 20.17 17.468 20.6075 16.2954 20.6075C10.0297 20.6075 1.40134 11.98 1.40134 5.71501L1.38384 5.71501Z" fill="white"/>
</svg>
